{"title":"GiMA Global Indian Music Awards Hindi 30th October 2011@","uid":6785102,"size":884614368,"categoryP":"video","categoryS":"tv_shows","magnet":"?xt=urn:btih:61c5b32658f0e891827d81371ab7fc17589ad734&amp;dn=GiMA+Global+Indian+Music+Awards+Hindi+30th+October+2011%40&amp;tr=udp%3A%2F%2Ftracker.openbittorrent.com%3A80&amp;tr=udp%3A%2F%2Fopen.demonii.com%3A1337&amp;tr=udp%3A%2F%2Ftracker.coppersurfer.tk%3A6969&amp;tr=udp%3A%2F%2Fexodus.desync.com%3A6969","seeders":0,"leechers":1,"uploader":"amanrulz","files":3,"time":1320059194,"description":"mastitorrents.com\n &lt;a href=&quot;\nhttp://mastitorrents.com/forums/index.php&quot; rel=&quot;nofollow&quot; target=&quot;_NEW&quot;&gt;\nhttp://mastitorrents.com/forums/index.php&lt;/a&gt;\n\nInfo :- Format : AVI Format/Info : Audio Video Interleave File size : 844 MiB Duration : 2h 46mn Overall bit rate : 710 Kbps Writing library : VirtualDub build 32842/release Video ID : 0 Format : MPEG-4 Visual Format profile : Advanced Simple@L5 Format settings, BVOP : Yes Format settings, QPel : No Format settings, GMC : No warppoints Format settings, Matrix : Default (H.263) Muxing mode : Packed bitstream Codec ID : XVID\nCodec ID/Hint : XviD\nDuration : 2h 46mn\nBit rate : 652 Kbps\nWidth : 640 pixels\nHeight : 360 pixels\nDisplay aspect ratio : 16:9\nFrame rate : 25.000 fps\nColor space : YUV\nChroma subsampling : 4:2:0\nBit depth : 8 bits\nScan type : Progressive\nBits/(Pixel*Frame) : 0.113\nStream size : 775 MiB (92%)\nWriting library : XviD 1.2.1 (UTC 2008-12-04)\nAudio\nID : 1\nFormat : MPEG Audio\nFormat version : Version 2\nFormat profile : Layer 3\nMode : Joint stereo\nMode extension : Intensity Stereo + MS Stereo\nCodec ID : 55 Codec ID/Hint : MP3 Duration : 2h 46mn\nBit rate mode : Constant\nBit rate : 48.0 Kbps\nChannel(s) : 2 channels\nSampling rate : 24.0 KHz\nStream size : 57.0 MiB (7%)\nAlignment : Split accross interleaves\nInterleave, duration : 40 ms (1.00 video frame)\nInterleave, preload duration : 500 ms ","torrent":{"xt":"urn:btih:61c5b32658f0e891827d81371ab7fc17589ad734","amp;dn":"GiMA+Global+Indian+Music+Awards+Hindi+30th+October+2011%40","amp;tr":["udp%3A%2F%2Ftracker.openbittorrent.com%3A80","udp%3A%2F%2Fopen.demonii.com%3A1337","udp%3A%2F%2Ftracker.coppersurfer.tk%3A6969","udp%3A%2F%2Fexodus.desync.com%3A6969"],"infoHash":"61c5b32658f0e891827d81371ab7fc17589ad734","infoHashBuffer":{"type":"Buffer","data":[97,197,179,38,88,240,232,145,130,125,129,55,26,183,252,23,88,154,215,52]},"announce":[],"urlList":[]}}